<?xml version="1.0" encoding="utf-8"?>
<!-- Generator: Adobe Illustrator 27.2.0, SVG Export Plug-In . SVG Version: 6.00 Build 0)  -->
<svg version="1.1" xmlns="http://www.w3.org/2000/svg" xmlns:xlink="http://www.w3.org/1999/xlink" x="0px" y="0px"
	 viewBox="0 0 523 153.8" style="enable-background:new 0 0 523 153.8;" xml:space="preserve">
<style type="text/css">
	.st0{fill:#EF0000;}
	.st1{display:none;}
	.st2{display:inline;fill:#2B4C99;}
</style>
<g id="Logo_1.2">
	<g>
		<path class="st0" d="M36.4,41.1L36.4,41.1l0-2.4h0c-6.4,0-11.6-5.2-11.6-11.6c0-6.4,5.2-11.6,11.6-11.6c3.4,0,6.5,1.5,8.6,3.8
			l1.8-1.6c-2.6-2.8-6.3-4.6-10.4-4.6c-7.8,0-14.1,6.3-14.1,14.1S28.7,41.1,36.4,41.1z"/>
		<path class="st0" d="M87.2,15.4c6.4,0,11.6,5.2,11.6,11.6c0,6.4-5.2,11.6-11.6,11.6v2.4c7.8,0,14.1-6.3,14.1-14.1
			c0-7.8-6.3-14.1-14.1-14.1c-4.1,0-7.8,1.8-10.4,4.6l1.8,1.6C80.7,16.9,83.8,15.4,87.2,15.4z"/>
		<path class="st0" d="M86.9,106.8c-1.8,0-3.3,1.5-3.3,3.3c0,1.8,1.5,3.3,3.3,3.3s3.3-1.5,3.3-3.3C90.2,108.3,88.7,106.8,86.9,106.8
			z"/>
		<path class="st0" d="M36.8,106.8c-1.8,0-3.3,1.5-3.3,3.3c0,1.8,1.5,3.3,3.3,3.3s3.3-1.5,3.3-3.3C40.1,108.3,38.6,106.8,36.8,106.8
			z"/>
		<path class="st0" d="M123.1,60c0.7-1.1,0.4-2.6-0.7-3.3s-2.6-0.4-3.3,0.7l-2.2,3.3l-2.7-1.8l-1.8,2.7l2.7,1.8L94.6,94.2l4,2.6
			l20.5-30.8l2.7,1.8l1.8-2.7l-2.7-1.8L123.1,60z"/>
		<polygon class="st0" points="30,89.7 27.2,91.5 4,56.6 0.5,55.6 0,59.2 23.3,94.1 20.5,95.9 22.3,98.7 31.8,92.4 		"/>
		<path class="st0" d="M50.7,64.1c-0.4,0.7-1.1,2.2-1.1,3.2c0,0.7,0.6,1.3,1.3,1.3s1.3-0.6,1.3-1.3c0-1-0.7-2.4-1.1-3.2
			C51.1,63.9,50.8,63.9,50.7,64.1z"/>
		<path class="st0" d="M56.1,64.1c-0.4,0.7-1.1,2.2-1.1,3.2c0,0.7,0.6,1.3,1.3,1.3c0.7,0,1.3-0.6,1.3-1.3c0-1-0.7-2.4-1.1-3.2
			C56.5,63.9,56.2,63.9,56.1,64.1z"/>
		<path class="st0" d="M61.6,64.1c-0.4,0.7-1.1,2.2-1.1,3.2c0,0.7,0.6,1.3,1.3,1.3c0.7,0,1.3-0.6,1.3-1.3c0-1-0.7-2.4-1.1-3.2
			C62,63.9,61.7,63.9,61.6,64.1z"/>
		<path class="st0" d="M67,64.1c-0.4,0.7-1.1,2.2-1.1,3.2c0,0.7,0.6,1.3,1.3,1.3c0.7,0,1.3-0.6,1.3-1.3c0-1-0.7-2.4-1.1-3.2
			C67.4,63.9,67.1,63.9,67,64.1z"/>
		<path class="st0" d="M53.4,70.7c-0.4,0.7-1.1,2.2-1.1,3.2c0,0.7,0.6,1.3,1.3,1.3c0.7,0,1.3-0.6,1.3-1.3c0-1-0.7-2.4-1.1-3.2
			C53.8,70.5,53.5,70.5,53.4,70.7z"/>
		<path class="st0" d="M58.9,70.7c-0.4,0.7-1.1,2.2-1.1,3.2c0,0.7,0.6,1.3,1.3,1.3s1.3-0.6,1.3-1.3c0-1-0.7-2.4-1.1-3.2
			C59.2,70.5,59,70.5,58.9,70.7z"/>
		<path class="st0" d="M64.3,70.7c-0.4,0.7-1.1,2.2-1.1,3.2c0,0.7,0.6,1.3,1.3,1.3c0.7,0,1.3-0.6,1.3-1.3c0-1-0.7-2.4-1.1-3.2
			C64.7,70.5,64.4,70.5,64.3,70.7z"/>
		<path class="st0" d="M69.7,70.7c-0.4,0.7-1.1,2.2-1.1,3.2c0,0.7,0.6,1.3,1.3,1.3c0.7,0,1.3-0.6,1.3-1.3c0-1-0.7-2.4-1.1-3.2
			C70.1,70.5,69.8,70.5,69.7,70.7z"/>
		<path class="st0" d="M56.1,77.3c-0.4,0.7-1.1,2.2-1.1,3.2c0,0.7,0.6,1.3,1.3,1.3c0.7,0,1.3-0.6,1.3-1.3c0-1-0.7-2.4-1.1-3.2
			C56.5,77.1,56.2,77.1,56.1,77.3z"/>
		<path class="st0" d="M67,77.3c-0.4,0.7-1.1,2.2-1.1,3.2c0,0.7,0.6,1.3,1.3,1.3c0.7,0,1.3-0.6,1.3-1.3c0-1-0.7-2.4-1.1-3.2
			C67.4,77.1,67.1,77.1,67,77.3z"/>
		<path class="st0" d="M74,67.2c0-1-0.7-2.4-1.1-3.2c-0.1-0.2-0.4-0.2-0.5,0c-0.4,0.7-1.1,2.2-1.1,3.2c0,0.7,0.6,1.3,1.3,1.3
			S74,68,74,67.2z"/>
		<path class="st0" d="M67.9,88l16.8,11.6l2.8-4.2L76.2,82.1c0.5-0.6,0.9-1.2,1.3-1.9l8.9,3.2c5.1,1.9,10.8-0.8,12.7-5.9l-17.7-6.4
			c-0.7-0.2-1.1-0.9-1.1-1.6l0-1.9l16.6,2.9c5.4,0.9,10.5-2.6,11.5-8l-26.7-4.7c-0.8-0.1-1.4-0.8-1.4-1.6v-1.6h27
			c5.5,0,9.9-4.4,9.9-9.9H84.4c-1.2,1.4-2.9,2.3-4.9,2.3c-3.5,0-6.4-2.9-6.4-6.4c0-3.5,2.9-6.4,6.4-6.4c0,0,0,0,0,0h6.1l3.6,1.8
			l1.9-4.7c0.6-1.4,0.4-3-0.4-4.3c-0.9-1.3-2.3-2.1-3.8-2.1h-1.6l-1.5-1.5c-0.7-0.7-1.7-1.2-2.8-1.2h-8.9l1.3,1.7
			C68,26,63.7,30.3,61.8,35.7C60,30.3,55.7,26,50.2,24.1l1.3-1.7h-8.9c-1,0-2.1,0.4-2.8,1.2L38.4,25h-1.6c-1.5,0-3,0.8-3.8,2.1
			c-0.9,1.3-1,2.9-0.4,4.3l1.9,4.7l3.6-1.8h6.1c0,0,0,0,0,0c3.5,0,6.4,2.9,6.4,6.4c0,3.5-2.9,6.4-6.4,6.4c-2,0-3.8-0.9-4.9-2.3H6.4
			c0,5.5,4.4,9.9,9.9,9.9h27v1.6c0,0.8-0.6,1.5-1.4,1.6l-26.7,4.7c0.9,5.4,6.1,9,11.5,8l16.6-2.9l0,1.9c0,0.7-0.4,1.3-1.1,1.6
			l-17.7,6.4c1.9,5.1,7.5,7.8,12.7,5.9l8.9-3.2c0.4,0.7,0.9,1.3,1.3,1.9L36.1,95.4l2.8,4.2L55.7,88c0.6,0.2,1.1,0.4,1.7,0.5
			l-5.7,10.8l2.7,1.9l3.4-2.7l2.6,7.1h1.3h1.3l2.6-7.1l3.4,2.7l2.7-1.9l-5.7-10.8C66.8,88.3,67.4,88.1,67.9,88z M84.4,27.7h2.5
			c0.7,0,1.3,0.3,1.6,0.9c0.4,0.6,0.4,1.2,0.2,1.9l-0.9,2l-1.7-0.8h-4.5v-1.8L84.4,27.7z M80.5,24.2c1,0,1.8,0.8,1.8,1.8
			s-0.8,1.8-1.8,1.8c-1,0-1.8-0.8-1.8-1.8S79.5,24.2,80.5,24.2z M41.8,31.6h-4.5l-1.7,0.8l-0.9-2c-0.3-0.6-0.2-1.3,0.2-1.9
			c0.4-0.6,1-0.9,1.6-0.9h2.5l2.6,2.1V31.6z M43.1,27.9c-1,0-1.8-0.8-1.8-1.8s0.8-1.8,1.8-1.8c1,0,1.8,0.8,1.8,1.8
			S44.1,27.9,43.1,27.9z M46.7,48.8H77v9.7H46.7V48.8z M61.8,85.7c-8.2,0-14.8-6.4-15.1-14.5h0V61H77v10.2h0
			C76.6,79.3,70,85.7,61.8,85.7z"/>
		<path class="st0" d="M61.8,15.8c2.6,0,5,0.6,7.1,1.8L71,9.2l-5.3,1.3l-2.6-2.6v-3h2.6V2.6h-2.6V0h-2.6v2.6h-2.6v2.3h2.6v3
			l-2.6,2.6l-5.3-1.3l2.1,8.4C56.8,16.5,59.2,15.8,61.8,15.8z"/>
		<path class="st0" d="M96,99.1l-5-3.4l-4.7,7l5,3.3c1.9,1.3,4.5,0.8,5.8-1.2C98.4,103,97.9,100.4,96,99.1z"/>
		<path class="st0" d="M32.7,95.7l-5,3.4c-1.9,1.3-2.5,3.9-1.2,5.8c1.3,1.9,3.9,2.5,5.8,1.2l5-3.3L32.7,95.7z"/>
		<polygon class="st0" points="53.8,53.4 52.9,51.6 52.4,51.6 51.4,53.4 50,51.6 49.6,51.6 49.6,55.7 55.7,55.7 55.7,51.6 
			55.3,51.6 		"/>
		<polygon class="st0" points="63,53.4 62.1,51.6 61.6,51.6 60.6,53.4 59.1,51.6 58.8,51.6 58.8,55.7 64.9,55.7 64.9,51.6 
			64.5,51.6 		"/>
		<polygon class="st0" points="72.2,53.4 71.2,51.6 70.7,51.6 69.8,53.4 68.3,51.6 67.9,51.6 67.9,55.7 74.1,55.7 74.1,51.6 
			73.7,51.6 		"/>
		<path class="st0" d="M196.3,64.7l-8.4-1.6c-4.3-0.9-6.9-2.6-6.9-6.7c0-3,2-6.7,9.2-6.7c4.9,0,9,2,9.9,8.5l11.1-1.3
			c-0.8-8.2-6.9-16-20.9-16c-13.7,0-20.1,8.5-20.1,16.2c0,10.9,8.5,14.6,16,16.1l7.1,1.4c5.4,1.1,7.8,2.7,7.8,6.8
			c0,3.3-2.2,7.5-9.7,7.5c-7.1,0-11.6-3.2-11.9-10.4l-11,1.3c0.2,11,8.9,18,22.9,18c13.9,0,20.9-8.5,20.9-17.4
			S206.3,66.6,196.3,64.7z"/>
		<path class="st0" d="M231.5,83.9V65.2h8.5V57h-8.5V44.8h-10.3V57H215v8.2h6.2v20.1c0,7.1,3.3,11.3,12,11.3h7.7v-8.5h-5.6
			C232.3,88.1,231.5,86.6,231.5,83.9z"/>
		<path class="st0" d="M278.7,85.3V70.6c0-7.5-4.5-14.6-16.2-14.6c-11.5,0-16.9,6.7-17.7,12.7l9.6,1c0.5-2.4,2-5.9,7.7-5.9
			c5.4,0,6.6,3.5,6.6,5.3c0,1.3-0.5,2.3-2.3,2.6l-10.7,1.8c-6.9,1.2-12,4.9-12,12.3c0,6,4.6,11.7,13.9,11.7c5.4,0,9.5-2.1,12.1-5.8
			c1.3,4.1,5.7,4.9,8.5,4.9h4.9v-8.5h-1.6C279.3,88.2,278.7,87.2,278.7,85.3z M268.8,80.1c0,5.7-4,9.6-9.2,9.6c-4,0-5.9-1.9-5.9-4.8
			c0-2.4,1.3-4.5,5.3-5.1l9.8-1.6V80.1z"/>
		<path class="st0" d="M315.3,61.5c-2.7-3.4-6.7-5.5-11.9-5.5c-11,0-17.7,8.9-17.7,21.1s6.8,20.5,17.7,20.5c5.6,0,9.7-2.4,12.4-6.3
			v5.4h9.8V41.8h-10.3V61.5z M305.6,89c-6.1,0-9.4-5.2-9.4-12.2c0-7.1,3.3-12.2,9.4-12.2c6.2,0,9.9,5.3,9.9,12.2
			C315.4,84,311.8,89,305.6,89z"/>
		<path class="st0" d="M346.8,83.9V65.2h8.5V57h-8.5V44.8h-10.3V57h-6.2v8.2h6.2v20.1c0,7.1,3.3,11.3,12,11.3h7.7v-8.5h-5.6
			C347.6,88.1,346.8,86.6,346.8,83.9z"/>
		<polygon class="st0" points="422.5,41.8 409.1,41.8 388.5,67.3 388.5,41.8 377.5,41.8 377.5,96.7 388.5,96.7 388.5,81.9 395,74.2 
			410.1,96.7 423.2,96.7 402.5,65.8 		"/>
		<path class="st0" d="M448.9,51.8c3,0,5.5-2.4,5.5-5.4c0-3.1-2.5-5.4-5.5-5.4c-3.1,0-5.5,2.4-5.5,5.4
			C443.4,49.5,445.8,51.8,448.9,51.8z"/>
		<path class="st0" d="M434.3,51.8c3,0,5.5-2.4,5.5-5.4c0-3.1-2.5-5.4-5.5-5.4c-3.1,0-5.5,2.4-5.5,5.4
			C428.8,49.5,431.2,51.8,434.3,51.8z"/>
		<path class="st0" d="M441.6,56.1c-12.5,0-20.1,8.8-20.1,20.8c0,11.9,7.2,20.8,20.1,20.8c12.5,0,20.2-8.9,20.2-20.8
			C461.8,64.8,454.4,56.1,441.6,56.1z M441.6,89.3c-6.7,0-9.6-5.4-9.6-12.5c0-7.1,3-12.5,9.6-12.5c6.8,0,9.8,5.3,9.8,12.5
			C451.4,83.9,448.4,89.3,441.6,89.3z"/>
		<rect x="468" y="41.8" class="st0" width="10.3" height="54.9"/>
		<path class="st0" d="M508.3,56.1c-5.5,0-9.3,2.1-11.7,5.4V57h-9.8v39.7h10.3V74.3c0-6.3,3-9.6,8.3-9.6c4.6,0,7.4,2.8,7.4,8v24H523
			V71C523,62.8,518.4,56.1,508.3,56.1z"/>
	</g>
	<g>
		<path class="st0" d="M186.9,153.4l-7.8-11.6l-3.4,3.9v7.7h-5.7V125h5.7v13.2l10.6-13.2h6.9L183,137.4l10.7,16H186.9z"/>
		<path class="st0" d="M207.7,153.4v-2.3c-1.2,1.7-3.1,2.8-5.8,2.8c-5.1,0-7.4-3.5-7.4-7.7v-13.2h5.3v12.4c0,2.7,1.3,4.1,3.6,4.1
			c2.7,0,4.1-1.8,4.1-5v-11.5h5.3v20.5H207.7z"/>
		<path class="st0" d="M222.7,125v28.3h-5.3V125H222.7z"/>
		<path class="st0" d="M225.5,132.9h3.2v-6.3h5.3v6.3h4.4v4.3H234v9.6c0,1.4,0.4,2.2,2,2.2h2.9v4.4h-4c-4.5,0-6.2-2.1-6.2-5.8v-10.4
			h-3.2V132.9z"/>
		<path class="st0" d="M254.9,153.4v-2.3c-1.2,1.7-3.1,2.8-5.8,2.8c-5.1,0-7.4-3.5-7.4-7.7v-13.2h5.3v12.4c0,2.7,1.3,4.1,3.6,4.1
			c2.7,0,4.1-1.8,4.1-5v-11.5h5.3v20.5H254.9z"/>
		<path class="st0" d="M269.6,132.9v3.2c1.2-2,3-3.2,5.4-3.2h1.7v4.9h-1.9c-3.1,0-5,2.1-5,6.8v8.8h-5.3v-20.5H269.6z"/>
		<path class="st0" d="M295.7,153.4c-1.4,0-3.7-0.4-4.4-2.5c-1.3,1.9-3.4,3-6.2,3c-4.8,0-7.2-3-7.2-6c0-3.8,2.6-5.8,6.2-6.4l5.5-0.9
			c0.9-0.2,1.2-0.7,1.2-1.3c0-0.9-0.6-2.8-3.4-2.8c-3,0-3.7,1.8-4,3l-5-0.5c0.4-3.1,3.2-6.6,9.2-6.6c6.1,0,8.4,3.6,8.4,7.5v7.6
			c0,1,0.3,1.5,1.5,1.5h0.8v4.4H295.7z M286.1,149.8c2.7,0,4.7-2,4.7-5v-0.9l-5.1,0.8c-2,0.3-2.7,1.4-2.7,2.6
			C283.1,148.8,284.1,149.8,286.1,149.8z"/>
		<path class="st0" d="M313.8,153.4V141c0-2.7-1.3-4.1-3.5-4.1c-2.6,0-4,1.7-4,5v11.5H301v-20.5h5.1v2.3c1.2-1.7,3.1-2.8,5.7-2.8
			c3.1,0,5.1,1.3,6.3,3.4c1.2-2,3.2-3.4,6.3-3.4c5.2,0,7.5,3.5,7.5,7.7v13.2h-5.3V141c0-2.7-1.3-4.1-3.5-4.1c-2.6,0-4,1.7-4,5v11.5
			H313.8z"/>
		<path class="st0" d="M334.2,132.9h3.2v-6.3h5.3v6.3h4.4v4.3h-4.4v9.6c0,1.4,0.4,2.2,2,2.2h2.9v4.4h-4c-4.5,0-6.2-2.1-6.2-5.8
			v-10.4h-3.2V132.9z"/>
	</g>
</g>
<g id="KE" class="st1">
	<rect x="-66.3" y="13.4" class="st2" width="56.7" height="56.7"/>
	<rect x="170.1" y="96.7" class="st2" width="28.3" height="28.3"/>
	<rect x="141.7" y="125" class="st2" width="28.3" height="28.3"/>
	<rect x="805.5" y="96.7" class="st2" width="28.3" height="28.3"/>
	<rect x="777.2" y="125" class="st2" width="28.3" height="28.3"/>
	<rect x="811.2" y="153.4" class="st2" width="28.3" height="28.3"/>
	<rect x="782.9" y="181.7" class="st2" width="28.3" height="28.3"/>
</g>
</svg>
